<svg width="48" height="48" viewBox="0 0 48 48" fill="none" xmlns="http://www.w3.org/2000/svg">
<path fill-rule="evenodd" clip-rule="evenodd" d="M22.8861 0.00785671C22.8047 0.014435 22.4939 0.0361108 22.1954 0.056076C17.5047 0.369599 12.7875 2.22166 9.03705 5.2224C4.21761 9.07842 1.08801 14.5394 0.226921 20.5955C0.0666822 21.7225 0.0229387 22.3133 0.00405998 23.6055C-0.0232715 25.4746 0.0847058 26.7781 0.409756 28.5042C1.84165 36.1077 7.00844 42.6597 14.1063 45.8727C20.0466 48.5617 26.8915 48.7078 32.9339 46.2747C33.649 45.9868 34.0268 45.8139 34.858 45.3942C40.3403 42.6259 44.6148 37.7476 46.6537 31.9323C48.2574 27.358 48.4331 22.3649 47.1555 17.6682C46.4695 15.1464 45.3324 12.6845 43.8436 10.4978C42.1293 7.97997 39.838 5.70614 37.3412 4.04501C33.8415 1.71664 30.099 0.416963 25.8462 0.0529184C25.445 0.0185795 23.1806 -0.0158911 22.8861 0.00785671ZM25.0897 2.09454C29.1086 2.31534 32.7445 3.50266 36.042 5.67108C37.8902 6.88643 39.5672 8.3976 40.9785 10.1195C43.4949 13.1898 45.1222 16.8909 45.6931 20.8422C45.8418 21.8714 45.8803 22.3909 45.8991 23.6216C45.9182 24.8748 45.8923 25.4781 45.7752 26.516C45.3022 30.705 43.5706 34.7554 40.8677 37.9945C40.4102 38.5428 39.6939 39.3273 39.6508 39.3273C39.6325 39.3273 39.4509 39.2168 39.2472 39.0817C38.0456 38.2848 36.8908 37.7691 34.0522 36.7617C32.2514 36.1226 31.832 35.9562 31.1059 35.5927C30.5203 35.2994 30.0562 34.9791 29.7424 34.6517C29.3562 34.2487 29.3023 34.1412 29.2667 33.7028C29.2178 33.1013 29.1902 31.7428 29.2164 31.2241L29.241 30.7353L29.4868 30.4683C30.361 29.519 31.2583 27.9127 31.6016 26.6829C31.7058 26.3097 31.7173 26.292 31.9667 26.1216C32.6294 25.6688 33.1198 24.8123 33.3606 23.6874C33.4854 23.104 33.5198 22.7601 33.5008 22.2835C33.4759 21.6592 33.3563 21.2539 33.0442 20.736L32.9108 20.5148L33.0439 20.0124C33.5922 17.943 33.8273 15.8935 33.7053 14.2474C33.4567 10.8923 31.9349 8.79638 29.2378 8.09444L28.9293 8.01415L28.6282 7.72651C27.8852 7.01677 26.929 6.58978 25.598 6.37341C23.7225 6.06854 21.2542 6.32983 19.4984 7.01911C15.3568 8.64504 13.7212 12.634 14.7298 18.6493C14.7839 18.9719 14.8819 19.4825 14.9477 19.7841C15.0135 20.0857 15.0741 20.3643 15.0825 20.4034C15.0923 20.449 15.0445 20.5619 14.9486 20.72C14.7572 21.0352 14.6469 21.2993 14.557 21.6574C14.4623 22.0343 14.4563 22.8016 14.5442 23.2927C14.7874 24.6515 15.2445 25.5399 15.9886 26.0999L16.2917 26.3279L16.3622 26.6032C16.6747 27.8234 17.6126 29.514 18.5295 30.5095L18.7843 30.7863L18.7617 32.187C18.7493 32.9574 18.7287 33.6919 18.7159 33.8193C18.686 34.1174 18.553 34.3472 18.2111 34.6922C17.58 35.3286 16.5022 35.8637 14.2196 36.6738C11.7688 37.5436 11.0673 37.8266 9.97684 38.3854C9.65123 38.5523 9.18749 38.814 8.94631 38.9669C8.70512 39.1199 8.47243 39.2672 8.42921 39.2941C8.35393 39.341 8.34347 39.3362 8.18149 39.179C7.66449 38.6773 6.70421 37.5239 6.12874 36.7133C4.12081 33.8852 2.84183 30.7342 2.31667 27.3219C1.99794 25.2506 1.98666 23.0211 2.28418 20.8916C2.48823 19.4311 2.86538 17.9133 3.36928 16.5246C6.07776 9.06066 12.6116 3.63278 20.4221 2.35836C21.9801 2.10414 23.5989 2.01264 25.0897 2.09454Z" fill="#333333"/>
</svg>
